<svg width="48px" height="48px" viewBox="0 0 50 50" xmlns="http://www.w3.org/2000/svg" xml:space="preserve"><g fill="#007889"><path d="m28.396 12.48 3.999 1.999v9.857L26.476 28.762a1.247 1.247 0 0 0 -0.48 0.975v6.531H21.993V29.741a1.247 1.247 0 0 0 -0.48 -0.975L15.594 24.34V14.476l3.999 -2.003v9.267c0 0.446 0.257 0.862 0.658 1.07l3.201 1.603a1.285 1.285 0 0 0 1.089 0l3.182 -1.603a1.209 1.209 0 0 0 0.673 -1.07z"/><path d="m46.715 20.553 -4.014 -0.809a18.898 18.898 0 0 0 -2.464 -5.953l2.268 -3.402a1.587 1.587 0 0 0 -0.2 -2.018l-2.676 -2.676a1.587 1.587 0 0 0 -2.018 -0.197l-3.402 2.268a18.898 18.898 0 0 0 -5.953 -2.468L27.447 1.285A1.587 1.587 0 0 0 25.89 0.011h-3.78a1.587 1.587 0 0 0 -1.565 1.274l-0.809 4.014a18.898 18.898 0 0 0 -5.949 2.464l-3.402 -2.268a1.587 1.587 0 0 0 -2.018 0.2l-2.676 2.676a1.587 1.587 0 0 0 -0.2 2.014l2.268 3.409A18.898 18.898 0 0 0 5.291 19.744l-4.018 0.809A1.587 1.587 0 0 0 0 22.11v3.78c0 0.767 0.544 1.429 1.274 1.561l4.018 0.809a18.898 18.898 0 0 0 2.464 5.953l-2.268 3.402a1.587 1.587 0 0 0 0.2 2.018l2.676 2.676a1.587 1.587 0 0 0 2.014 0.2l3.402 -2.268a18.898 18.898 0 0 0 5.957 2.464l0.805 4.018a1.587 1.587 0 0 0 1.565 1.285h3.78a1.587 1.587 0 0 0 1.561 -1.285l0.809 -4.018a18.898 18.898 0 0 0 5.949 -2.464l3.409 2.268a1.587 1.587 0 0 0 2.014 -0.2l2.676 -2.676a1.587 1.587 0 0 0 0.197 -2.018l-2.268 -3.402a18.898 18.898 0 0 0 2.468 -5.953l4.014 -0.809a1.587 1.587 0 0 0 1.285 -1.561v-3.78a1.587 1.587 0 0 0 -1.285 -1.561M34.802 24.952a1.247 1.247 0 0 1 -0.491 0.952L28.399 30.35v7.128a1.209 1.209 0 0 1 -1.206 1.209H20.795a1.209 1.209 0 0 1 -1.209 -1.209V30.35L13.682 25.905a1.247 1.247 0 0 1 -0.476 -0.952V13.754c0 -0.465 0.249 -0.888 0.65 -1.085l6.399 -3.213a1.209 1.209 0 0 1 1.168 0.072 1.172 1.172 0 0 1 0.582 1.02v10.454l2.003 1.005 1.999 -1.005V10.545c0 -0.408 0.197 -0.805 0.567 -1.02a1.172 1.172 0 0 1 1.153 -0.064l6.403 3.209a1.209 1.209 0 0 1 0.68 1.085z"/></g></svg>